<svg aria-hidden="true" style="position: absolute; width: 0; height: 0; overflow: hidden;" version="1.1" 
  xmlns="http://www.w3.org/2000/svg" xmlns:xlink="http://www.w3.org/1999/xlink"
><defs>

  <symbol viewBox="0 0 50 50" id="close-popup-icon">
		<path d="M9.016,40.837c0.195,0.195,0.451,0.292,0.707,0.292c0.256,0,0.512-0.098,0.708-0.293l14.292-14.309
		l14.292,14.309c0.195,0.196,0.451,0.293,0.708,0.293c0.256,0,0.512-0.098,0.707-0.292c0.391-0.39,0.391-1.023,0.001-1.414
		L26.153,25.129L40.43,10.836c0.39-0.391,0.39-1.024-0.001-1.414c-0.392-0.391-1.024-0.391-1.414,0.001L24.722,23.732L10.43,9.423
		c-0.391-0.391-1.024-0.391-1.414-0.001c-0.391,0.39-0.391,1.023-0.001,1.414l14.276,14.293L9.015,39.423
		C8.625,39.813,8.625,40.447,9.016,40.837z"/>
	</symbol>

	<symbol viewBox="0 0 512 512" id="hand-icon"> 
  	<path d="M459.04,85.675c-21.7-6.332-32.939,15.462-40.67,30.447l-24.695,57.958l15.659-104.422
			c2.244-13.628-0.375-25.677-7.381-33.929c-5.547-6.537-13.389-10.129-22.101-10.129c-16.7,0-31.249,14.549-37.146,37.41
			l-18.586,86.81V42.906c0.358-13.056-3.635-24.559-11.255-32.384C306.174,3.635,297.155,0,286.787,0
			c-29.065,0-36.173,28.45-39.211,40.593c-0.145,0.563-0.222,1.126-0.247,1.698l-4.403,101.265L230.202,50.27
			c-3.985-36.318-25.404-41.737-37.82-41.737c-22.554,0-38.929,17.946-38.903,43.298l17.067,230.4
			c0.35,4.693,4.284,8.243,9.139,7.876c4.702-0.35,8.226-4.437,7.876-9.139L170.52,51.2c0-12.74,6.758-25.6,21.862-25.6
			c4.446,0,17.946,0,20.881,26.752l25.6,187.733c0.597,4.378,4.565,7.603,8.849,7.373c4.412-0.205,7.936-3.746,8.132-8.158
			l8.491-195.388c5.726-22.332,12.851-26.846,22.451-26.846c5.734,0,10.394,1.801,13.85,5.35c4.378,4.497,6.647,11.605,6.417,20.25
			V230.4c0,4.369,3.294,8.021,7.629,8.491c4.395,0.384,8.329-2.441,9.242-6.707L359.32,66.935
			c3.115-12.083,10.675-24.269,20.531-24.269c3.669,0,6.81,1.417,9.088,4.104c3.652,4.309,4.958,11.639,3.541,20.233l-25.6,170.667
			c-0.64,4.25,1.98,8.303,6.11,9.472c4.156,1.169,8.508-0.913,10.18-4.864l50.62-118.895c10.402-20.07,15.061-22.886,20.471-21.325
			c3.849,1.118,8.627,2.517,5.914,15.915c-0.247,1.109-25.062,111.386-33.348,162.261c-2.603,16.009-4.395,35.49-6.46,58.044
			c-4.343,47.275-9.702,105.685-25.66,156.655H203.049C183.405,408.482,115.71,300.023,74.187,258.5
			c-7.424-7.424-20.326-21.615-23.04-24.593c0.077-0.154,0.205-0.384,0.444-0.7l3.695-3.593c9.967-9.958,43.315-9.95,53.282,0
			l32.666,32.666c3.337,3.328,8.738,3.328,12.066,0c3.337-3.336,3.337-8.738,0-12.066l-32.666-32.666
			c-16.64-16.64-60.774-16.64-77.329-0.094l-4.002,3.891c-0.222,0.213-0.427,0.444-0.623,0.683
			c-5.717,6.912-6.212,15.13-1.306,21.999c0.188,0.265,0.393,0.521,0.614,0.759c0.631,0.7,15.539,17.195,24.132,25.779
			c40.977,40.986,108.407,149.598,125.517,233.839c0.461,4.267,4.087,7.595,8.482,7.595h204.8c3.678,0,6.929-2.347,8.09-5.837
			c18.057-54.17,23.765-116.352,28.348-166.323c2.048-22.238,3.814-41.446,6.323-56.858c8.183-50.372,32.896-160.154,33.186-161.434
			C481.722,97.604,469.852,88.832,459.04,85.675z"/>
	</symbol>

	<symbol viewBox="0 0 201.729 201.729" id="wallet-icon"> 
		<path d="M182.183,51.782h-2.881V12.651c0-6.982-5.68-12.651-12.651-12.651h-5.576l-0.612,0.047
			C118.125,7.04,19.456,36.476,18.487,36.762C6.898,40.148,6.898,48.626,6.898,53.708v10.726v109.477v15.171
			c0,6.968,5.68,12.648,12.651,12.648h162.634c6.979,0,12.648-5.68,12.648-12.648v-30.263v-50.444V64.434
			C194.831,57.451,189.162,51.782,182.183,51.782z M20.63,44.009c0.981-0.301,98.73-29.468,140.756-36.461h5.264
			c2.813,0,5.107,2.294,5.107,5.103v39.135H19.549c-1.822,0-3.536,0.404-5.093,1.095C14.468,48.594,14.825,45.702,20.63,44.009z
			M187.283,151.285h-49.642c-2.809,0-5.103-2.305-5.103-5.114v-25.149c0-2.809,2.294-5.103,5.103-5.103h49.642
			C187.283,115.919,187.283,151.285,187.283,151.285z M137.641,108.375c-6.968,0-12.648,5.68-12.648,12.648v25.149
			c0,6.979,5.68,12.648,12.648,12.648h49.642v30.263c0,2.809-2.283,5.103-5.103,5.103H19.549c-2.813,0-5.103-2.294-5.103-5.103
			v-15.171V64.434c0-2.813,2.294-5.103,5.103-5.103h162.634c2.82,0,5.103,2.29,5.103,5.103v43.941H137.641z"/>
	</symbol>

	<symbol viewBox="0 0 511.999 511.999" id="clothes-icon">
		<path d="M506.784,168.058l-95.761-95.761c-10.69-10.69-24.903-16.577-40.023-16.577H140.997c-15.118,0-29.333,5.888-40.022,16.577
			l-95.76,95.761c-6.953,6.955-6.953,18.27,0,25.224l51.635,51.635c3.37,3.37,7.848,5.225,12.613,5.225s9.243-1.855,12.613-5.225
			l30.743-30.743V433.77c0,12.412,10.098,22.51,22.51,22.51h241.343c12.412,0,22.51-10.098,22.51-22.51V214.174l30.743,30.743
			c3.37,3.37,7.848,5.225,12.613,5.225c4.764,0,9.243-1.855,12.613-5.225l51.635-51.636
			C513.737,186.327,513.737,175.012,506.784,168.058z M291.492,71.888c-3.688,16.195-18.195,28.322-35.491,28.322
			c-17.295,0-31.802-12.127-35.49-28.322H291.492z M204.05,71.888c3.901,25.165,25.711,44.491,51.953,44.491
			c26.242,0,48.052-19.325,51.953-44.491h12.552c-3.995,32.051-31.389,56.942-64.504,56.942s-60.51-24.889-64.504-56.942H204.05z
			 M383.012,433.77c0,3.497-2.845,6.341-6.341,6.341H135.328c-3.497,0-6.341-2.845-6.341-6.341v-50.941h254.025V433.77z
			 M383.012,366.66H128.987v-32.647h254.025V366.66z M383.012,317.844H128.987v-24.639h254.025V317.844z M383.012,277.035H128.987
			v-32.647h254.025V277.035z M495.351,181.849l-51.635,51.635c-0.403,0.403-0.865,0.488-1.179,0.488s-0.776-0.085-1.179-0.488
			l-34.643-34.643c-3.987-3.985-9.926-5.167-15.132-3.01c-5.206,2.156-8.571,7.192-8.571,12.827v19.56H128.987v-19.56
			c0-5.635-3.364-10.67-8.571-12.827c-1.729-0.716-3.537-1.064-5.328-1.064c-3.606,0-7.14,1.411-9.804,4.073l-34.643,34.643
			c-0.403,0.403-0.865,0.488-1.179,0.488s-0.776-0.085-1.179-0.488l-51.635-51.635c-0.651-0.651-0.651-1.709,0-2.359l95.761-95.76
			c7.636-7.636,17.789-11.842,28.588-11.842h34.215c4.071,40.989,38.747,73.111,80.79,73.111s76.72-32.121,80.79-73.111h34.209
			c10.8,0,20.953,4.205,28.589,11.842l95.761,95.76C496.001,180.14,496.001,181.199,495.351,181.849z"/>
	</symbol>

	<symbol viewBox="0 0 490.4 490.4" id="heart-icon">
		<path d="M222.5,453.7c6.1,6.1,14.3,9.5,22.9,9.5c8.5,0,16.9-3.5,22.9-9.5L448,274c27.3-27.3,42.3-63.6,42.4-102.1
				c0-38.6-15-74.9-42.3-102.2S384.6,27.4,346,27.4c-37.9,0-73.6,14.5-100.7,40.9c-27.2-26.5-63-41.1-101-41.1
				c-38.5,0-74.7,15-102,42.2C15,96.7,0,133,0,171.6c0,38.5,15.1,74.8,42.4,102.1L222.5,453.7z M59.7,86.8
				c22.6-22.6,52.7-35.1,84.7-35.1s62.2,12.5,84.9,35.2l7.4,7.4c2.3,2.3,5.4,3.6,8.7,3.6l0,0c3.2,0,6.4-1.3,8.7-3.6l7.2-7.2
				c22.7-22.7,52.8-35.2,84.9-35.2c32,0,62.1,12.5,84.7,35.1c22.7,22.7,35.1,52.8,35.1,84.8s-12.5,62.1-35.2,84.8L251,436.4
				c-2.9,2.9-8.2,2.9-11.2,0l-180-180c-22.7-22.7-35.2-52.8-35.2-84.8C24.6,139.6,37.1,109.5,59.7,86.8z"/>
	</symbol>

	<symbol viewBox="0 0 24 24" id="mastercard-icon">
		<path d="M11.343 18.031c.058.049.12.098.181.146-1.177.783-2.59 1.238-4.107 1.238C3.32 19.416 0 16.096 0 12c0-4.095 3.32-7.416 7.416-7.416 1.518 0 2.931.456 4.105 1.238-.06.051-.12.098-.165.15C9.6 7.489 8.595 9.688 8.595 12c0 2.311 1.001 4.51 2.748 6.031zm5.241-13.447c-1.52 0-2.931.456-4.105 1.238.06.051.12.098.165.15C14.4 7.489 15.405 9.688 15.405 12c0 2.31-1.001 4.507-2.748 6.031-.058.049-.12.098-.181.146 1.177.783 2.588 1.238 4.107 1.238C20.68 19.416 24 16.096 24 12c0-4.094-3.32-7.416-7.416-7.416zM12 6.174c-.096.075-.189.15-.28.231C10.156 7.764 9.169 9.765 9.169 12c0 2.236.987 4.236 2.551 5.595.09.08.185.158.28.232.096-.074.189-.152.28-.232 1.563-1.359 2.551-3.359 2.551-5.595 0-2.235-.987-4.236-2.551-5.595-.09-.08-.184-.156-.28-.231z"/>
	</symbol>

	<symbol viewBox="0 0 24 24" id="visa-icon">
		<path d="M22.222 15.768l-.225-1.125h-2.514l-.4 1.117-2.015.004a4199.19 4199.19 0 0 1 2.884-6.918c.164-.391.455-.59.884-.588.328.003.863.003 1.606.001L24 15.765l-1.778.003zm-2.173-2.666h1.62l-.605-2.82-1.015 2.82zM7.06 8.257l2.026.002-3.132 7.51-2.051-.002a950.849 950.849 0 0 1-1.528-5.956c-.1-.396-.298-.673-.679-.804C1.357 8.89.792 8.71 0 8.465V8.26h3.237c.56 0 .887.271.992.827.106.557.372 1.975.8 4.254L7.06 8.257zm4.81.002l-1.602 7.508-1.928-.002L9.94 8.257l1.93.002zm3.91-.139c.577 0 1.304.18 1.722.345l-.338 1.557c-.378-.152-1-.357-1.523-.35-.76.013-1.23.332-1.23.638 0 .498.816.749 1.656 1.293.959.62 1.085 1.177 1.073 1.782-.013 1.256-1.073 2.495-3.309 2.495-1.02-.015-1.388-.101-2.22-.396l.352-1.625c.847.355 1.206.468 1.93.468.663 0 1.232-.268 1.237-.735.004-.332-.2-.497-.944-.907-.744-.411-1.788-.98-1.774-2.122.017-1.462 1.402-2.443 3.369-2.443z"/>
	</symbol>

	<symbol viewBox="0 0 100 100" id="privat24">
		<path d="M7 93h33.5V59.5H7V93z"/><path d="M7 7.3V49h8.9C39.2 49 51 60.8 51 84.1V93h41.7V7.3H7zM75 25v50.3h-6.8c-2.9-24.9-18.6-40.5-43.4-43.4v-6.8C36.1 25 63.6 25 75 25z"/>
	</symbol>

	<symbol viewBox="0 0 203.833 203.833" id="terminal-icon">
		<path d="M156.229,203.833H47.604c-1.657,0-3-1.343-3-3V14.094C44.604,6.322,50.926,0,58.698,0h86.438
		c7.771,0,14.094,6.322,14.094,14.094v186.739C159.229,202.49,157.886,203.833,156.229,203.833z M50.604,197.833h102.625v-57.667
		H50.604V197.833z M50.604,134.167h102.625V14.094c0-4.463-3.631-8.094-8.094-8.094H58.698c-4.463,0-8.094,3.631-8.094,8.094V134.167
		z M93.586,127.219H92.02c-1.657,0-3-1.343-3-3s1.343-3,3-3h1.566c1.657,0,3,1.343,3,3S95.243,127.219,93.586,127.219z
		M80.729,127.219h-1.566c-1.657,0-3-1.343-3-3s1.343-3,3-3h1.566c1.657,0,3,1.343,3,3S82.386,127.219,80.729,127.219z
		M67.873,127.219h-1.566c-1.657,0-3-1.343-3-3s1.343-3,3-3h1.566c1.657,0,3,1.343,3,3S69.53,127.219,67.873,127.219z
		M137.527,123.021h-23.213c-1.657,0-3-1.343-3-3v-14.956c0-1.657,1.343-3,3-3h23.213c1.657,0,3,1.343,3,3v14.956
		C140.527,121.677,139.184,123.021,137.527,123.021z M117.314,117.021h17.213v-8.956h-17.213V117.021z M93.586,117.642H92.02
		c-1.657,0-3-1.343-3-3s1.343-3,3-3h1.566c1.657,0,3,1.343,3,3S95.243,117.642,93.586,117.642z M80.729,117.642h-1.566
		c-1.657,0-3-1.343-3-3s1.343-3,3-3h1.566c1.657,0,3,1.343,3,3S82.386,117.642,80.729,117.642z M67.873,117.642h-1.566
		c-1.657,0-3-1.343-3-3s1.343-3,3-3h1.566c1.657,0,3,1.343,3,3S69.53,117.642,67.873,117.642z M93.586,108.065H92.02
		c-1.657,0-3-1.343-3-3s1.343-3,3-3h1.566c1.657,0,3,1.343,3,3S95.243,108.065,93.586,108.065z M80.729,108.065h-1.566
		c-1.657,0-3-1.343-3-3s1.343-3,3-3h1.566c1.657,0,3,1.343,3,3S82.386,108.065,80.729,108.065z M67.873,108.065h-1.566
		c-1.657,0-3-1.343-3-3s1.343-3,3-3h1.566c1.657,0,3,1.343,3,3S69.53,108.065,67.873,108.065z M137.527,94.421h-71.22
		c-1.657,0-3-1.343-3-3V23.203c0-1.657,1.343-3,3-3h71.22c1.657,0,3,1.343,3,3v68.218C140.527,93.078,139.184,94.421,137.527,94.421z
		M69.307,88.421h65.22V26.203h-65.22V88.421z"/>
	</symbol>

	<!-- <symbol viewBox="0 0 284 126" id="webmoney-icon">
		<path d="M231.028 41.7789C234.942 41.7789 238.665 42.6759 242.005 44.2804C242.529 44.5162 243.056 44.8 243.579 45.0842L241.289 47.1169L237.854 43.5729L231.938 48.768L228.454 45.0377L217.573 54.7206L224.54 62.3242L221.82 64.6828L228.692 72.2865L225.972 74.6482L235.805 85.4639L241.624 80.1725L246.685 85.8427C245.682 86.5984 244.584 87.3555 243.393 88.015C239.766 90.0478 235.565 91.2241 231.078 91.2241C217.286 91.2241 206.072 80.129 206.072 66.4798C206.025 52.9252 217.239 41.7759 231.03 41.7759L231.028 41.7789ZM226.446 64.9668L232.414 59.6754L237.758 65.5813L231.791 70.8697L226.446 64.9652V64.9668ZM230.693 75.1696L236.614 69.8316L242.005 75.7361L236.038 81.0275L230.695 75.1696H230.693ZM222.203 54.9068L228.165 49.6184L233.513 55.5212L227.545 60.8128L222.203 54.9068ZM233.13 52.0749L237.566 48.107L241.576 52.4986L237.135 56.513L233.127 52.0749H233.13ZM241.05 70.2567L245.487 66.2904L249.496 70.7285L245.057 74.698L241.049 70.2567H241.05ZM244.963 79.184L249.402 75.2161L253.409 79.6076L248.971 83.622L244.963 79.184ZM246.776 58.7785L249.737 56.1358L252.407 59.064L249.45 61.7081L246.775 58.7785H246.776ZM242.959 50.042L245.919 47.3514L248.593 50.3275L245.632 52.9732L242.96 50.0436L242.959 50.042ZM250.549 67.5195L253.506 64.8738L256.225 67.8019L253.218 70.446L250.547 67.5195H250.549ZM237.234 60.9524L241.672 56.9862L245.68 61.3777L241.244 65.3456L237.234 60.9539V60.9524ZM53.8648 58.8109H53.64L49.4132 74.8811H45.9598L40.775 52.0516H44.3602L47.9438 69.0852H48.167L52.3256 52.0516H55.1745L59.623 69.0852H59.8493L63.1136 52.0516H66.8584L61.6721 74.8811H58.2157L53.8648 58.8109ZM71.4061 65.1609H78.733C78.5734 61.7812 76.9396 60.428 75.2114 60.428C73.2584 60.428 71.7549 61.9441 71.4046 65.1609H71.4061ZM81.2936 71.2157V73.6645C79.8521 74.5024 77.9332 75.1463 75.6268 75.1463C70.2483 75.1463 68.0442 71.7961 68.0442 66.7094C68.0442 61.8136 70.5087 58.2725 75.3075 58.2725C79.3065 58.2725 81.771 60.8795 81.771 66.1275V67.3194H71.3395C71.3395 71.1833 72.905 72.89 76.2034 72.89C77.9332 72.89 79.5328 72.2756 81.292 71.2142L81.2936 71.2157ZM89.2187 72.5657C90.2417 73.0156 91.3639 73.0807 92.1637 73.0807C94.5352 73.0807 96.3224 71.5989 96.3224 66.3819C96.3224 62.293 94.8499 60.9739 92.7078 60.9739C91.4275 60.9739 90.499 61.3275 89.2202 62.0353V72.5639L89.2187 72.5657ZM89.2497 59.6552C90.2107 59.1402 91.8413 58.4603 93.5711 58.4603C97.5391 58.4603 99.6843 61.2302 99.6843 66.3821C99.6843 72.4029 96.8014 75.3357 92.1638 75.3357C90.4665 75.3357 87.8423 74.7861 85.9219 73.7529V51.285L89.2513 50.478V59.6552H89.2497ZM114.09 70.0363H114.248L121.095 52.0361H125.063V74.8671H121.606V58.316H121.319L114.791 74.8671H112.745L106.216 58.7039H105.926V74.8671H103.046V52.0361H106.921L114.09 70.0363ZM139.185 66.7094C139.185 62.3645 137.427 60.5288 135.252 60.5288C133.141 60.5288 131.315 62.363 131.315 66.7094C131.315 71.1211 132.98 72.89 135.252 72.89C137.523 72.89 139.186 71.1212 139.186 66.708L139.185 66.7094ZM127.958 66.708C127.958 61.072 131.03 58.2709 135.254 58.2709C139.481 58.2709 142.551 61.0704 142.551 66.7064C142.551 72.2105 139.64 75.1433 135.255 75.1433C130.869 75.1433 127.959 72.2105 127.959 66.7064L127.958 66.708ZM145.081 60.656C146.522 59.7871 149.563 58.2725 153.24 58.2725C157.081 58.2725 158.519 59.7839 158.519 63.0984V74.7584H155.193V63.8448C155.193 61.3 153.948 60.8501 152.313 60.8501C151.034 60.8501 149.399 61.4306 148.407 62.0092V74.7599H145.081V60.6544V60.656ZM165.566 65.1609H172.891C172.736 61.7812 171.101 60.428 169.372 60.428C167.419 60.428 165.916 61.9441 165.564 65.1609H165.566ZM175.45 71.2157V73.6645C174.011 74.5024 172.091 75.1463 169.785 75.1463C164.414 75.1463 162.205 71.7961 162.205 66.7094C162.205 61.8136 164.667 58.2725 169.467 58.2725C173.466 58.2725 175.934 60.8795 175.934 66.1275V67.3194H165.502C165.502 71.1833 167.067 72.89 170.363 72.89C172.091 72.89 173.695 72.2756 175.45 71.2142V71.2157ZM189.228 58.2741H192.653L186.859 74.3658C185.258 78.81 183.31 81.1283 179.629 81.1283V78.4935C181.805 78.4935 183.147 76.7556 183.918 74.369L177.773 58.2741H181.292L185.39 70.1203H185.582L189.228 58.2725L189.228 58.2741Z"/>
	</symbol> -->
	
	<symbol viewBox="0 0 66 65" id="webmoney-icon1">
		<path d="M31.848 0c4.993 0 9.744 1.144 14.007 3.2.67.302 1.34.663 2.008 1.024L44.94 6.813l-4.382-4.515-7.55 6.62-4.448-4.765-13.885 12.342 8.9 9.692-3.47 3 8.77 9.692-3.47 3.008L37.94 55.683l7.425-6.743 6.458 7.226c-1.28.963-2.68 1.928-4.2 2.77a32.11 32.11 0 0 1-15.712 4.09C14.3 63.026 0 48.883 0 31.486-.062 14.207 14.25 0 31.848 0zM26 29.558l7.612-6.743 6.822 7.525-7.614 6.742zm5.42 13.003l7.55-6.802 6.882 7.524-7.613 6.743zM20.584 16.736l7.6-6.743 6.82 7.525-7.613 6.742zm13.943-3.623L40.2 8.067l5.116 5.6-5.664 5.116zm10.1 23.177l5.673-5.047 5.116 5.657-5.664 5.06zm4.993 11.38l5.664-5.058 5.112 5.6-5.662 5.116zm2.315-26.007l3.775-3.372 3.4 3.734-3.774 3.37zm-4.872-11.137l3.775-3.43 3.412 3.792-3.778 3.37zm9.682 22.275l3.775-3.37 3.48 3.74-3.835 3.37zm-17-8.368l5.664-5.057 5.114 5.598-5.662 5.058z"/>
	</symbol>

	<symbol viewBox="0 0 512 512" id="paypal-icon">
		<path d="M282.132 200.172c9.431-5.827 14.695-13.568 17.091-25.078 4.393-20.869-2.714-26.983-4.618-29.87-12.216-18.668-50.401-18.166-81.398-17.992-0.226 0.778-0.451 1.566-0.686 2.365-6.277 21.361-15.442 52.685-23.388 79.954 24.115 3.399 68.465 5.786 92.999-9.38z"/>
		<path d="M127.15 30.679l-109.24 367.882 144.558 1.721 29.286-92.139c0 0 190.3 29.563 220.027-100.291 55.010-240.087-284.631-177.173-284.631-177.173zM373.781 189.163c-6.37 30.515-23.829 55.286-50.442 71.68-53.76 33.034-130.109 23.101-155.167 18.616l-30.034 91.73-74.025-1.003 35.379-123.843 53.77-183.818 24.299-3.523c12.094-1.751 119.696-15.606 171.909 36.281 16.62 16.496 34.304 46.172 24.31 93.881z"/>
		<path d="M437.392 143.022c4.915 34.581-0.491 46.285-2.243 51.845 12.943 17.52 22.938 44.185 14.909 82.759-6.38 30.515-23.849 55.296-50.462 71.67-53.75 33.045-130.13 23.122-155.187 18.637l-30.013 91.719-74.014-0.983c0 0 4.885-16.322 6.308-21.32h-37.745l-14.848 49.685 144.599 1.721 29.286-92.16c0 0 190.279 29.563 220.068-100.281 18.544-80.804-7.752-127.191-50.658-153.293z"/>
	</symbol>

</defs>
</svg>